# xmcd
#
# Track frame offsets: 
#        150
#        15701
#        29393
#        42428
#        56292
#        70504
#        86902
#        101371
#        131785
#        151738
#        162371
#        173724
#        190116
#        202478
#        216085
#        229566
#        248428
#        262149
#        274870
#
# Disc length: 3809 seconds
#
# Revision: 3
# Processed by: cddbd v1.5.2PL0 Copyright (c) Steve Scherf et al.
# Submitted via: ExactAudioCopyFreeDBPlugin 1.0
#
DISCID=060edf13
DTITLE=Various Artist - Blues Story
DYEAR=2003
DGENRE=Blues
TTITLE0=Mamie Smith - Crazy Blues
TTITLE1=Blind Lemon Jefferson - Match Box Blues
TTITLE2=Blind Blake - Police Dog Blues
TTITLE3=Ma Rainey - Yonder Comes the Blues
TTITLE4=Charley Patton - Screamin' and Hollerin' Blues
TTITLE5=Tommy Johnson - Canned Heat Blues
TTITLE6=Bessie Smith - St. Louis BLues
TTITLE7=Son House - Walking Blues
TTITLE8=Pinetop Perkins - How Long
TTITLE9=Robert Lockwood Jr. - Take a Walk with Me
TTITLE10=Sonny Boy Williamson - She Brought Life Back to the Dead
TTITLE11=Lowell Fulson - Reconsider Baby
TTITLE12=Louis Jordan - Caldonia
TTITLE13=Big Joe Turner - Shake Rattle and Roll
TTITLE14=Ruth Brown - Mama (He Treats Your Daughter Mean)
TTITLE15=Clarence Gatemouth Brown - Okie Dokie Stomp
TTITLE16=Bone Walker - Call It Stormy Monday
TTITLE17=B.B. King - Everyday I Have the Blues
TTITLE18=Bobby Blue Band - St. James Infirmary
EXTD=YEAR: 2003
EXTT0=
EXTT1=
EXTT2=
EXTT3=
EXTT4=
EXTT5=
EXTT6=
EXTT7=
EXTT8=
EXTT9=
EXTT10=
EXTT11=
EXTT12=
EXTT13=
EXTT14=
EXTT15=
EXTT16=
EXTT17=
EXTT18=
PLAYORDER=
